<svg width="55" height="49" viewBox="0 0 55 49" fill="none" xmlns="http://www.w3.org/2000/svg">
<path fill-rule="evenodd" clip-rule="evenodd" d="M43.0738 2.70328L53.6977 21.0855C54.2877 22.1118 54.5965 23.2756 54.5927 24.4594C54.5889 25.6432 54.2727 26.805 53.6761 27.8275L43.0522 46.2098C42.5786 47.0301 41.8978 47.7115 41.078 48.186C40.2582 48.6604 39.3281 48.9111 38.3809 48.9131H17.1602C15.9824 48.9108 14.8258 48.5996 13.8059 48.0104C12.786 47.4213 11.9385 46.5748 11.3482 45.5556L0.72434 27.1463C0.249816 26.3244 0 25.3921 0 24.443C0 23.494 0.249816 22.5616 0.72434 21.7397L11.3482 3.35748C11.9381 2.33905 12.7847 1.49309 13.8035 0.903966C14.8224 0.314847 15.9779 0.00316487 17.1548 1.05312e-05H38.3809C39.3318 -0.00186596 40.2663 0.24706 41.0903 0.721678C41.9142 1.1963 42.5984 1.87982 43.0738 2.70328ZM16.3285 31.3102C16.0155 31.3102 15.7204 31.4378 15.5057 31.6567L9.89798 37.3743C9.53128 37.7482 9.79065 38.3865 10.3094 38.3865H38.6968C39.0099 38.3865 39.305 38.2588 39.5197 38.04L45.1274 32.3224C45.4941 31.9485 45.2347 31.3102 44.716 31.3102H16.3285ZM15.5057 10.619C15.7293 10.4001 16.0244 10.2725 16.3285 10.2725H44.716C45.2347 10.2725 45.4941 10.9108 45.1274 11.2847L39.5197 17.0023C39.305 17.2211 39.0099 17.3488 38.6968 17.3488H10.3094C9.79065 17.3488 9.53128 16.7105 9.89798 16.3366L15.5057 10.619ZM38.6968 20.7913C39.0099 20.7913 39.305 20.9156 39.5197 21.1285L45.1274 26.6916C45.4941 27.0553 45.2347 27.6764 44.716 27.6764H16.3285C16.0155 27.6764 15.7204 27.5522 15.5057 27.3393L9.89798 21.7762C9.53128 21.4124 9.79065 20.7913 10.3094 20.7913H38.6968Z" fill="#111111"/>
</svg>

