<svg width="164" height="32" viewBox="0 0 164 32" fill="none" xmlns="http://www.w3.org/2000/svg">
<path d="M56.0662 23.8965C54.708 23.8965 53.5101 23.5947 52.4725 22.9911C51.435 22.3685 50.6238 21.5102 50.039 20.4161C49.4542 19.3219 49.1618 18.0486 49.1618 16.596C49.1618 15.1246 49.4448 13.8324 50.0107 12.7194C50.5955 11.6064 51.4067 10.7386 52.4442 10.1161C53.5006 9.49354 54.7174 9.18228 56.0945 9.18228C57.4528 9.18228 58.6223 9.49354 59.6033 10.1161C60.5842 10.7197 61.3388 11.5309 61.867 12.5496C62.4141 13.5683 62.6876 14.6907 62.6876 15.9169C62.6876 16.1055 62.6876 16.313 62.6876 16.5394C62.6876 16.7469 62.6782 16.9827 62.6593 17.2468H52.1047C52.199 18.5485 52.6235 19.5389 53.378 20.218C54.1326 20.8782 55.0192 21.2084 56.0379 21.2084C56.9245 21.2084 57.6225 21.0292 58.1319 20.6707C58.6601 20.2934 59.0468 19.7841 59.292 19.1427H62.3198C61.9802 20.4821 61.2728 21.6139 60.1975 22.5383C59.1222 23.4438 57.7451 23.8965 56.0662 23.8965ZM56.0662 11.7856C55.1419 11.7856 54.3213 12.0685 53.6044 12.6345C52.8876 13.1815 52.4254 13.955 52.2179 14.9548H59.6882C59.6127 14.0116 59.2449 13.2476 58.5846 12.6628C57.9244 12.078 57.0849 11.7856 56.0662 11.7856Z" fill="#111111"/>
<path d="M71.0524 23.557L64.9686 9.52184H68.3642L72.8634 20.3878L77.3908 9.52184H80.7581L74.6461 23.557H71.0524Z" fill="#111111"/>
<path d="M90.0001 23.8965C88.6419 23.8965 87.444 23.5947 86.4064 22.9911C85.3689 22.3685 84.5577 21.5102 83.9729 20.4161C83.3881 19.3219 83.0957 18.0486 83.0957 16.596C83.0957 15.1246 83.3787 13.8324 83.9446 12.7194C84.5294 11.6064 85.3406 10.7386 86.3781 10.1161C87.4345 9.49354 88.6513 9.18228 90.0284 9.18228C91.3866 9.18228 92.5562 9.49354 93.5372 10.1161C94.5181 10.7197 95.2727 11.5309 95.8009 12.5496C96.348 13.5683 96.6215 14.6907 96.6215 15.9169C96.6215 16.1055 96.6215 16.313 96.6215 16.5394C96.6215 16.7469 96.6121 16.9827 96.5932 17.2468H86.0386C86.1329 18.5485 86.5573 19.5389 87.3119 20.218C88.0665 20.8782 88.9531 21.2084 89.9718 21.2084C90.8584 21.2084 91.5564 21.0292 92.0658 20.6707C92.594 20.2934 92.9807 19.7841 93.2259 19.1427H96.2537C95.9141 20.4821 95.2067 21.6139 94.1314 22.5383C93.0561 23.4438 91.679 23.8965 90.0001 23.8965ZM90.0001 11.7856C89.0757 11.7856 88.2551 12.0685 87.5383 12.6345C86.8214 13.1815 86.3593 13.955 86.1518 14.9548H93.6221C93.5466 14.0116 93.1788 13.2476 92.5185 12.6628C91.8583 12.078 91.0188 11.7856 90.0001 11.7856Z" fill="#111111"/>
<path d="M100.487 23.557V20.9537H103.911V13.0589C103.911 12.4364 103.609 12.1251 103.006 12.1251H100.77V9.52184H104.137C104.911 9.52184 105.543 9.74821 106.033 10.201C106.524 10.6348 106.769 11.2479 106.769 12.0402V12.3798H106.91C107.118 11.3234 107.561 10.5311 108.24 10.0029C108.938 9.45581 109.948 9.18228 111.268 9.18228H113.447V12.3515H110.391C109.278 12.3515 108.42 12.7382 107.816 13.5117C107.212 14.2851 106.91 15.2095 106.91 16.2847V20.9537H111.268V23.557H100.487Z" fill="#111111"/>
<path d="M123.877 23.8965C122.029 23.8965 120.557 23.4627 119.463 22.5949C118.369 21.7271 117.746 20.5764 117.596 19.1427H120.68C120.793 19.803 121.123 20.3406 121.67 20.7556C122.236 21.1706 122.981 21.3781 123.906 21.3781C124.792 21.3781 125.471 21.1989 125.943 20.8405C126.434 20.4632 126.679 20.0293 126.679 19.5389C126.679 18.822 126.386 18.3315 125.802 18.0674C125.236 17.8033 124.396 17.6053 123.283 17.4732C122.321 17.36 121.444 17.1431 120.652 16.8224C119.878 16.4828 119.265 16.0301 118.812 15.4641C118.36 14.8793 118.133 14.1531 118.133 13.2853C118.133 12.0591 118.614 11.0687 119.576 10.3141C120.538 9.55957 121.878 9.18228 123.594 9.18228C125.311 9.18228 126.641 9.569 127.584 10.3424C128.527 11.1159 129.075 12.1723 129.225 13.5117H126.339C126.264 12.9457 125.971 12.5024 125.462 12.1817C124.953 11.8422 124.321 11.6724 123.566 11.6724C122.793 11.6724 122.18 11.8233 121.727 12.1251C121.274 12.4081 121.048 12.7854 121.048 13.257C121.048 14.2757 122.142 14.8982 124.33 15.1246C125.368 15.2378 126.292 15.4358 127.103 15.7188C127.914 15.9829 128.556 16.4074 129.027 16.9922C129.499 17.5581 129.735 18.3598 129.735 19.3974C129.754 20.2463 129.508 21.0103 128.999 21.6894C128.509 22.3685 127.82 22.9062 126.933 23.3023C126.066 23.6985 125.047 23.8965 123.877 23.8965Z" fill="#111111"/>
<path d="M140.731 23.8965C139.392 23.8965 138.194 23.5947 137.137 22.9911C136.081 22.3874 135.251 21.5385 134.647 20.4444C134.044 19.3314 133.742 18.0297 133.742 16.5394C133.742 15.0491 134.044 13.7569 134.647 12.6628C135.251 11.5498 136.081 10.6914 137.137 10.0878C138.194 9.48411 139.401 9.18228 140.759 9.18228C142.118 9.18228 143.316 9.48411 144.353 10.0878C145.41 10.6914 146.23 11.5498 146.815 12.6628C147.419 13.7569 147.72 15.0491 147.72 16.5394C147.72 18.0297 147.419 19.3314 146.815 20.4444C146.211 21.5385 145.381 22.3874 144.325 22.9911C143.287 23.5947 142.089 23.8965 140.731 23.8965ZM140.731 21.0386C141.448 21.0386 142.108 20.8782 142.712 20.5575C143.316 20.2368 143.797 19.7464 144.155 19.0861C144.532 18.407 144.721 17.5581 144.721 16.5394C144.721 15.5019 144.532 14.653 144.155 13.9927C143.797 13.3325 143.316 12.842 142.712 12.5213C142.127 12.2006 141.476 12.0402 140.759 12.0402C140.043 12.0402 139.382 12.2006 138.779 12.5213C138.175 12.842 137.685 13.3325 137.307 13.9927C136.949 14.653 136.77 15.5019 136.77 16.5394C136.77 18.0863 137.156 19.2276 137.93 19.9633C138.722 20.6802 139.656 21.0386 140.731 21.0386Z" fill="#111111"/>
<path d="M151.133 23.557V20.9537H155.831V6.72047C155.831 6.09794 155.529 5.78668 154.925 5.78668H151.529V3.18339H155.463C156.557 3.18339 157.387 3.47578 157.953 4.06058C158.538 4.62652 158.83 5.45655 158.83 6.55069V20.9537H163.556V23.557H151.133Z" fill="#111111"/>
<path fill-rule="evenodd" clip-rule="evenodd" d="M28.1798 1.76855L35.1302 13.7946C35.5162 14.466 35.7182 15.2274 35.7157 16.0019C35.7132 16.7764 35.5064 17.5365 35.1161 18.2054L28.1657 30.2315C27.8559 30.7681 27.4105 31.214 26.8741 31.5243C26.3378 31.8347 25.7293 31.9987 25.1097 32H11.2266C10.456 31.9986 9.69935 31.7949 9.03211 31.4095C8.36487 31.024 7.81046 30.4703 7.42425 29.8035L0.473879 17.7597C0.163435 17.222 0 16.612 0 15.9912C0 15.3703 0.163435 14.7603 0.473879 14.2226L7.42425 2.19654C7.81016 1.53026 8.36402 0.97681 9.03058 0.591395C9.69714 0.20598 10.4531 0.00207053 11.2231 6.88972e-06H25.1097C25.7317 -0.00122075 26.3431 0.161632 26.8822 0.472138C27.4212 0.782643 27.8688 1.22982 28.1798 1.76855ZM10.6825 20.4838C10.4777 20.4838 10.2846 20.5673 10.1442 20.7105L6.47547 24.4511C6.23558 24.6957 6.40526 25.1133 6.74463 25.1133H25.3163C25.5211 25.1133 25.7142 25.0298 25.8546 24.8866L29.5233 21.146C29.7632 20.9014 29.5936 20.4838 29.2542 20.4838H10.6825ZM10.1442 6.94717C10.2905 6.80399 10.4835 6.72047 10.6825 6.72047H29.2542C29.5936 6.72047 29.7632 7.13808 29.5233 7.38268L25.8546 11.1233C25.7142 11.2664 25.5211 11.35 25.3163 11.35H6.74463C6.40526 11.35 6.23558 10.9324 6.47547 10.6878L10.1442 6.94717ZM25.3163 13.6022C25.5211 13.6022 25.7142 13.6834 25.8546 13.8227L29.5233 17.4622C29.7632 17.7002 29.5936 18.1065 29.2542 18.1065H10.6825C10.4777 18.1065 10.2846 18.0253 10.1442 17.886L6.47547 14.2465C6.23558 14.0085 6.40526 13.6022 6.74463 13.6022H25.3163Z" fill="#111111"/>
</svg>
